<?xml version="1.0" standalone="no"?>
<!DOCTYPE svg PUBLIC "-//W3C//DTD SVG 20010904//EN"
 "http://www.w3.org/TR/2001/REC-SVG-20010904/DTD/svg10.dtd">
<svg version="1.0" xmlns="http://www.w3.org/2000/svg"
 width="408.000000pt" height="612.000000pt" viewBox="0 0 408.000000 612.000000"
 preserveAspectRatio="xMidYMid meet">

<g transform="translate(0.000000,612.000000) scale(0.100000,-0.100000)"
fill="#000000" stroke="none">
<path d="M0 3060 l0 -3060 2040 0 2040 0 0 3060 0 3060 -2040 0 -2040 0 0
-3060z m2459 2196 c-2 -2 -29 -6 -59 -9 -36 -4 -46 -3 -30 3 25 8 97 13 89 6z
m189 -3 c-10 -2 -26 -2 -35 0 -10 3 -2 5 17 5 19 0 27 -2 18 -5z m49 -9 c-3
-3 -12 -4 -19 -1 -8 3 -5 6 6 6 11 1 17 -2 13 -5z m-427 -28 c0 -2 -9 -6 -20
-9 -11 -3 -18 -1 -14 4 5 9 34 13 34 5z m540 -6 c8 -5 11 -10 5 -10 -5 0 -17
5 -25 10 -8 5 -10 10 -5 10 6 0 17 -5 25 -10z m-780 -20 c0 -5 -4 -10 -10 -10
-5 0 -10 5 -10 10 0 6 5 10 10 10 6 0 10 -4 10 -10z m-153 -6 c-3 -3 -12 -4
-19 -1 -8 3 -5 6 6 6 11 1 17 -2 13 -5z m40 0 c-3 -3 -12 -4 -19 -1 -8 3 -5 6
6 6 11 1 17 -2 13 -5z m251 -1 c-10 -2 -26 -2 -35 0 -10 3 -2 5 17 5 19 0 27
-2 18 -5z m-440 -18 c-37 -8 -72 -17 -78 -20 -5 -3 -10 -2 -10 3 0 11 79 30
125 30 17 0 0 -6 -37 -13z m1157 5 c3 -6 -1 -7 -9 -4 -18 7 -21 14 -7 14 6 0
13 -4 16 -10z m-1258 -26 c-3 -3 -12 -4 -19 -1 -8 3 -5 6 6 6 11 1 17 -2 13
-5z m-77 -19 c-46 -18 -74 -17 -35 0 17 8 39 14 50 14 13 0 8 -5 -15 -14z
m1384 -43 c12 -11 29 -22 39 -25 9 -4 22 -19 28 -34 5 -15 19 -33 29 -40 12
-8 20 -26 20 -42 0 -15 5 -32 12 -39 13 -13 20 -132 7 -132 -4 0 -6 -7 -3 -15
4 -8 1 -15 -6 -15 -8 0 -10 -9 -6 -26 5 -17 3 -23 -4 -19 -6 4 -9 -3 -7 -16 1
-12 -4 -24 -13 -26 -9 -3 -11 -1 -5 4 6 4 11 26 13 48 2 22 0 36 -5 32 -4 -5
-9 -13 -9 -18 -1 -5 -2 -13 -3 -19 -2 -18 -21 -10 -30 12 -7 19 -8 20 -14 3
-4 -9 -2 -24 4 -32 10 -12 3 -13 -50 -10 l-63 5 4 -30 c4 -21 0 -32 -14 -39
-10 -6 -24 -22 -29 -37 -8 -21 -12 -24 -20 -12 -7 11 -8 7 -3 -12 4 -20 2 -28
-7 -29 -8 0 -5 -4 6 -9 19 -8 19 -9 -3 -9 -19 -1 -22 4 -20 29 2 22 -4 35 -20
46 -18 13 -21 22 -16 48 4 24 1 38 -11 49 -9 9 -19 33 -22 52 -5 29 -3 34 10
30 22 -9 33 16 14 30 -25 18 -22 65 2 65 29 0 35 17 11 32 -32 20 -26 48 10
48 35 0 41 23 10 40 -27 14 -25 30 3 30 33 0 40 10 21 31 -9 10 -14 25 -11 34
7 16 47 21 47 5 0 -5 7 -10 15 -10 21 0 19 16 -6 41 -50 50 38 32 95 -19z
m-1504 9 c-8 -5 -26 -12 -40 -15 l-25 -7 25 15 c14 9 32 15 40 15 13 0 13 -1
0 -8z m-70 -32 c0 -5 -4 -7 -10 -4 -5 3 -20 -1 -32 -9 -12 -9 -29 -16 -38 -16
-17 1 48 39 68 40 6 0 12 -5 12 -11z m1730 -64 c0 -3 -11 7 -25 23 -14 17 -25
33 -25 37 0 3 11 -7 25 -23 14 -17 25 -33 25 -37z m-1844 20 c-11 -8 -25 -15
-30 -15 -6 0 -2 7 8 15 11 8 25 15 30 15 6 0 2 -7 -8 -15z m64 1 c0 -2 -7 -7
-16 -10 -8 -3 -12 -2 -9 4 6 10 25 14 25 6z m-144 -41 c-11 -8 -22 -12 -25 -9
-6 6 19 24 34 24 6 -1 1 -7 -9 -15z m1931 -17 c-3 -8 -6 -5 -6 6 -1 11 2 17 5
13 3 -3 4 -12 1 -19z m-1981 -11 c-10 -7 -32 -23 -47 -35 -16 -13 -29 -20 -29
-15 0 4 -5 1 -10 -7 -8 -13 -10 -12 -10 4 0 12 5 16 14 13 8 -3 17 1 20 9 3 8
20 21 38 29 40 17 50 18 24 2z m79 -7 c-3 -5 -12 -10 -18 -10 -7 0 -6 4 3 10
19 12 23 12 15 0z m2008 -94 c31 -22 55 -42 52 -44 -3 -3 -22 8 -43 25 -20 16
-47 35 -59 42 -13 6 -27 21 -33 34 -11 22 -11 22 7 2 10 -11 44 -38 76 -59z
m-2196 22 c-3 -8 -6 -5 -6 6 -1 11 2 17 5 13 3 -3 4 -12 1 -19z m-37 -18 c-24
-15 -37 -11 -16 5 11 8 22 12 25 9 3 -3 -1 -9 -9 -14z m-70 -51 c-55 -47 -80
-56 -30 -10 25 22 50 40 55 40 6 0 -6 -13 -25 -30z m2395 -20 c11 -17 -1 -21
-15 -4 -8 9 -8 15 -2 15 6 0 14 -5 17 -11z m39 -35 c9 -8 16 -20 16 -26 0 -6
-9 -1 -20 12 -29 33 -25 44 4 14z m-2527 -22 c-10 -10 -15 -22 -12 -25 3 -4 0
-3 -7 3 -9 7 -7 15 7 30 10 11 20 18 23 15 3 -3 -2 -13 -11 -23z m2763 -220
c0 -7 -15 4 -32 25 -53 60 -161 162 -168 158 -3 -2 -7 6 -7 18 -2 16 25 -6
102 -83 58 -58 105 -111 105 -118z m-500 158 c-17 -52 -25 -44 -9 9 7 23 14
39 17 36 3 -3 -1 -23 -8 -45z m-2305 30 c-3 -5 -11 -10 -16 -10 -6 0 -7 5 -4
10 3 6 11 10 16 10 6 0 7 -4 4 -10z m-40 -40 c-10 -11 -20 -18 -23 -15 -7 6
18 35 31 35 5 0 2 -9 -8 -20z m2213 3 c-29 -5 -37 -18 -15 -27 6 -2 1 -3 -12
-2 -54 6 -29 34 29 33 23 0 23 0 -2 -4z m49 -19 c-3 -3 -12 -4 -19 -1 -8 3 -5
6 6 6 11 1 17 -2 13 -5z m-2300 -28 c-16 -18 -31 -8 -16 10 6 7 15 11 20 8 5
-3 3 -11 -4 -18z m-36 -29 c-6 -8 -7 -18 -3 -22 4 -5 2 -5 -4 -2 -6 4 -19 -2
-29 -13 -10 -11 -23 -20 -29 -20 -5 0 5 16 24 35 32 33 65 50 41 22z m2200
-20 c-10 -9 -11 -8 -5 6 3 10 9 15 12 12 3 -3 0 -11 -7 -18z m-1558 -1 c13
-13 64 -253 56 -260 -2 -2 -202 -43 -444 -90 -242 -48 -448 -89 -458 -92 -20
-6 -20 -9 -46 134 -25 135 -21 146 46 160 40 9 411 83 723 145 98 19 106 20
123 3z m-717 -65 c-17 -19 -112 -48 -122 -38 -3 3 12 8 33 12 22 3 52 15 69
25 37 25 42 25 20 1z m1463 -24 c13 -16 5 -27 -21 -27 -11 0 -18 7 -18 20 0
23 22 27 39 7z m1596 -39 c64 -86 61 -83 48 -75 -17 11 -104 127 -95 127 4 0
25 -24 47 -52z m-1705 27 c0 -8 -4 -15 -10 -15 -5 0 -10 7 -10 15 0 8 5 15 10
15 6 0 10 -7 10 -15z m363 -5 c6 -23 -3 -26 -21 -8 -16 16 -15 28 2 28 7 0 16
-9 19 -20z m101 14 c23 -9 20 -24 -4 -24 -11 0 -20 7 -20 15 0 17 2 18 24 9z
m-2020 -43 c-10 -10 -21 -16 -24 -14 -3 3 4 11 14 19 28 20 33 17 10 -5z
m3356 -135 c0 -13 -39 35 -40 48 0 5 9 -1 20 -14 11 -13 20 -28 20 -34z
m-3373 -38 c-3 -7 -5 -2 -5 12 0 14 2 19 5 13 2 -7 2 -19 0 -25z m3470 26 c-3
-3 -12 -4 -19 -1 -8 3 -5 6 6 6 11 1 17 -2 13 -5z m-2453 -95 c9 -50 16 -92
14 -94 -7 -5 -172 -35 -175 -31 -7 7 -34 178 -29 183 6 6 120 30 152 32 18 1
22 -10 38 -90z m-1012 29 c-7 -7 -12 -8 -12 -2 0 14 12 26 19 19 2 -3 -1 -11
-7 -17z m803 0 c38 -167 39 -162 -39 -176 -97 -18 -93 -21 -106 61 -19 117
-21 110 35 123 80 19 104 17 110 -8z m1535 -24 c0 -8 -4 -14 -9 -14 -5 0 -7
-9 -4 -20 6 -22 -21 -60 -43 -60 -8 0 -13 -12 -13 -27 0 -24 -5 -66 -10 -95 0
-5 -7 -8 -15 -8 -8 0 -17 -12 -20 -26 -4 -14 -27 -46 -52 -70 -47 -47 -57 -53
-48 -30 3 8 1 17 -5 21 -6 3 -11 -1 -11 -9 0 -19 -32 -54 -46 -49 -5 2 -14 -7
-19 -19 -6 -13 -18 -23 -28 -23 -11 0 -26 -14 -36 -33 -9 -18 -20 -29 -24 -25
-5 4 -5 0 -1 -10 7 -19 4 -20 -48 -8 -25 6 -36 5 -32 -1 9 -15 -129 2 -141 17
-5 7 -22 15 -36 19 -22 5 -32 19 -53 71 -15 38 -26 85 -26 113 0 26 -4 62 -9
80 -6 20 -6 32 0 32 5 0 9 -11 9 -25 0 -14 4 -25 9 -25 5 0 17 -17 26 -37 34
-71 55 -92 85 -86 21 4 31 0 43 -17 10 -15 16 -17 19 -8 4 10 10 10 31 1 20
-9 28 -9 36 1 6 7 22 11 35 9 13 -3 27 0 30 6 4 6 16 11 27 11 13 0 24 10 30
30 6 17 17 30 24 30 14 0 24 41 26 104 l1 41 7 -35 c12 -62 68 -100 106 -72
31 22 75 94 75 121 0 24 4 31 20 31 16 0 20 7 20 35 0 25 4 35 15 35 9 0 20
12 25 26 10 26 30 25 30 -2z m-1700 -75 c6 -50 10 -93 7 -96 -9 -9 -140 -34
-153 -29 -12 4 -42 172 -32 181 5 5 124 32 149 34 13 1 19 -17 29 -90z m-693
-11 c-18 -36 -32 -57 -35 -48 -3 8 0 16 7 18 6 2 11 7 11 12 0 16 31 80 38 80
5 0 -5 -28 -21 -62z m498 20 c3 -24 11 -65 17 -91 5 -26 9 -50 7 -51 -6 -5
-154 -33 -158 -30 -5 4 -31 146 -31 170 0 19 9 23 58 32 100 17 99 17 107 -30z
m2195 20 c33 -36 27 -102 -15 -172 -50 -84 -143 -194 -273 -325 -40 -40 -71
-75 -69 -78 8 -8 114 81 202 171 94 95 176 195 196 240 7 14 18 26 25 26 17 0
64 -58 64 -79 0 -32 -49 -116 -115 -195 -36 -43 -65 -80 -65 -83 0 -21 162
137 192 187 12 19 23 36 24 38 1 2 37 -12 79 -32 57 -26 94 -53 144 -103 113
-113 165 -234 197 -461 24 -174 43 -291 75 -457 37 -192 36 -260 -7 -350 -34
-71 -118 -158 -170 -175 -53 -18 -159 -8 -214 20 -25 12 -99 76 -165 140 -145
142 -209 185 -299 201 l-66 12 61 35 c78 44 150 69 238 83 120 18 264 -21 351
-96 14 -11 34 -28 44 -36 18 -14 19 -13 3 16 -38 73 -140 136 -250 153 -81 13
-209 -1 -290 -32 -59 -22 -277 -139 -347 -186 -14 -10 -41 -22 -61 -29 -20 -6
-68 -31 -108 -56 -39 -24 -104 -61 -142 -81 -45 -24 -86 -55 -112 -86 -48 -56
-61 -56 -158 -7 -103 52 -215 176 -273 304 -100 220 -145 275 -226 275 -16 0
-30 5 -30 11 0 19 76 89 97 89 42 0 111 -60 174 -152 151 -215 225 -291 334
-339 62 -28 173 -36 235 -18 l45 13 -95 6 c-176 11 -269 73 -421 277 -102 138
-176 218 -211 229 -16 5 -18 12 -13 37 9 48 25 85 63 156 l35 64 19 -79 c38
-163 148 -337 257 -406 67 -42 68 -34 3 30 -142 139 -232 332 -232 496 0 96
19 167 65 251 40 72 110 154 99 116 -13 -47 -4 -160 16 -214 50 -134 190 -219
329 -202 49 6 161 47 161 59 0 2 -26 -3 -57 -11 -88 -23 -207 -14 -266 20 -96
57 -151 156 -150 272 1 64 26 141 43 130 5 -3 10 -12 10 -20 0 -7 11 -26 23
-42 13 -15 29 -54 35 -87 14 -72 43 -120 91 -151 107 -70 224 -21 413 171 154
157 281 330 319 435 19 51 27 61 50 66 16 3 34 12 40 19 16 19 25 18 49 -8z
m-2365 -99 c9 -50 14 -93 11 -96 -7 -7 -169 -42 -176 -38 -10 6 -34 174 -26
183 7 6 129 37 162 41 7 0 19 -36 29 -90z m1635 82 c0 -5 -9 -11 -21 -14 -16
-4 -18 -3 -8 9 13 16 29 19 29 5z m-60 -31 c0 -22 -5 -30 -17 -30 -13 0 -14 3
-5 12 7 7 12 20 12 30 0 10 2 18 5 18 3 0 5 -13 5 -30z m100 20 c0 -5 7 -7 15
-4 17 7 75 -14 75 -26 0 -5 -14 -2 -30 7 -17 8 -37 12 -45 10 -7 -3 -19 1 -25
9 -9 10 -9 14 -1 14 6 0 11 -4 11 -10z m-167 -30 c-8 -30 -21 -33 -19 -5 0 14
6 25 13 25 6 0 9 -9 6 -20z m127 16 c0 -3 -4 -8 -10 -11 -5 -3 -10 -1 -10 4 0
6 5 11 10 11 6 0 10 -2 10 -4z m-856 -127 c9 -50 16 -93 14 -94 -7 -6 -171
-34 -178 -30 -10 6 -34 174 -26 182 8 8 112 31 147 32 24 1 26 -3 43 -90z
m616 81 c0 -5 -4 -10 -10 -10 -5 0 -10 5 -10 10 0 6 5 10 10 10 6 0 10 -4 10
-10z m-1766 -45 c-9 -14 -19 -24 -21 -21 -6 6 20 46 30 46 4 0 0 -11 -9 -25z
m3603 -7 c-3 -7 -5 -2 -5 12 0 14 2 19 5 13 2 -7 2 -19 0 -25z m-2653 -63 c9
-47 15 -89 12 -93 -5 -9 -145 -37 -151 -31 -2 2 -7 17 -11 33 -7 29 -7 29 30
23 20 -3 36 -2 36 3 0 5 16 6 35 3 38 -6 39 -4 35 52 -2 39 -13 49 -45 41 -24
-6 -25 -10 -19 -43 4 -23 3 -34 -3 -30 -6 4 -13 20 -16 37 -9 40 -23 38 -43
-7 l-17 -38 -7 30 c-18 74 -15 81 43 92 107 21 102 24 121 -72z m-185 8 c14
-66 24 -143 18 -143 -3 0 -40 -7 -83 -15 -43 -8 -79 -14 -80 -12 -5 5 -35 180
-31 183 4 4 127 30 154 33 6 0 16 -20 22 -46z m2861 2 c0 -5 -5 -3 -10 5 -5 8
-10 20 -10 25 0 6 5 3 10 -5 5 -8 10 -19 10 -25z m-3042 -73 c18 -114 21 -107
-52 -120 -96 -18 -92 -20 -105 57 -19 117 -19 117 42 128 105 21 101 23 115
-65z m332 68 c0 -5 -7 -10 -15 -10 -8 0 -15 5 -15 10 0 6 7 10 15 10 8 0 15
-4 15 -10z m-962 -55 c-25 -51 -38 -53 -17 -3 11 28 26 47 36 48 2 0 -7 -20
-19 -45z m3706 -36 c3 -13 -3 -6 -13 16 -11 22 -20 47 -20 55 0 17 23 -34 33
-71z m-3254 -1 c6 -40 13 -83 16 -95 2 -13 2 -23 0 -23 -2 0 -40 -7 -83 -15
-43 -8 -83 -15 -89 -15 -9 0 -39 134 -39 174 0 9 123 41 167 45 13 1 19 -14
28 -71z m427 50 c-3 -8 -6 -5 -6 6 -1 11 2 17 5 13 3 -3 4 -12 1 -19z m1523
18 c0 -3 -4 -8 -10 -11 -5 -3 -10 -1 -10 4 0 6 5 11 10 11 6 0 10 -2 10 -4z
m-1432 -17 c-2 -6 -8 -10 -13 -10 -5 0 -11 4 -13 10 -2 6 4 11 13 11 9 0 15
-5 13 -11z m265 -136 c9 -48 13 -91 9 -95 -14 -14 -173 -36 -177 -24 -9 26
-33 171 -29 175 5 5 129 28 160 30 18 1 22 -10 37 -86z m-200 -43 c9 -46 14
-86 12 -89 -5 -4 -130 -30 -151 -31 -11 0 -42 176 -32 185 9 9 143 32 149 26
3 -3 13 -44 22 -91z m-1084 31 c-7 -23 -14 -39 -16 -37 -3 2 1 23 8 45 7 23
14 39 16 37 3 -2 -1 -23 -8 -45z m900 -38 c6 -38 14 -79 17 -94 5 -24 2 -25
-78 -41 -46 -9 -84 -15 -86 -13 -7 7 -34 176 -29 182 7 7 113 31 143 32 19 1
23 -7 33 -66z m2899 -18 c0 -16 -2 -15 -8 5 -11 34 -11 60 0 35 5 -11 8 -29 8
-40z m-3098 41 c0 -2 7 -41 16 -86 8 -46 12 -86 7 -90 -9 -7 -144 -33 -148
-28 -4 5 -35 181 -32 183 12 11 157 30 157 21z m-159 -116 c9 -50 13 -93 10
-95 -11 -6 -174 -35 -178 -32 -5 6 -35 179 -31 182 6 5 134 33 158 34 25 1 27
-3 41 -89z m-551 66 c0 -3 -4 -8 -10 -11 -5 -3 -10 -1 -10 4 0 6 5 11 10 11 6
0 10 -2 10 -4z m-16 -51 c-4 -8 -8 -15 -10 -15 -2 0 -4 7 -4 15 0 8 4 15 10
15 5 0 7 -7 4 -15z m1951 -1 c13 -9 33 -13 44 -9 15 4 27 -6 58 -52 21 -32 53
-67 70 -79 37 -25 28 -34 -32 -34 -80 0 -139 53 -162 148 -12 47 -12 48 22 26z
m-602 -81 c9 -48 14 -89 12 -91 -6 -6 -133 -31 -161 -32 -17 0 -22 10 -35 78
-7 42 -14 84 -14 92 0 14 83 36 151 39 l30 1 17 -87z m2497 47 c0 -11 -2 -20
-4 -20 -2 0 -6 9 -9 20 -3 11 -1 20 4 20 5 0 9 -9 9 -20z m-3869 -46 c-6 -28
-9 -32 -10 -14 -1 30 11 79 16 64 2 -6 -1 -28 -6 -50z m1168 -21 c7 -43 14
-85 17 -94 4 -14 -10 -20 -78 -32 -46 -8 -84 -14 -85 -13 -5 5 -33 180 -29
183 3 4 129 30 152 32 5 1 16 -34 23 -76z m-182 -33 c22 -104 18 -112 -52
-127 -33 -7 -68 -12 -77 -13 -19 0 -33 42 -44 131 l-6 56 58 11 c104 18 106
16 121 -58z m2901 -15 c0 -25 -2 -24 -9 10 -10 51 -10 92 1 50 4 -16 8 -43 8
-60z m-3084 -36 c9 -50 16 -93 14 -94 -5 -5 -153 -34 -156 -31 -5 6 -33 178
-29 182 4 4 122 31 143 33 7 1 19 -38 28 -90z m-190 34 c3 -10 8 -36 11 -58 4
-22 9 -49 12 -60 5 -19 5 -19 -18 2 -13 11 -33 23 -44 25 -13 2 -21 12 -23 31
-5 38 -25 34 -50 -12 -28 -50 -50 -59 -62 -25 -18 46 -12 83 13 89 111 27 154
29 161 8z m-622 -28 c-2 -19 -6 -35 -8 -35 -2 0 -4 16 -4 35 0 19 4 35 8 35 4
0 6 -16 4 -35z m1417 -92 c7 -42 15 -81 17 -87 10 -26 -23 -46 -100 -61 -44
-8 -80 -14 -81 -12 -4 6 -35 200 -33 203 4 3 147 31 169 33 11 1 18 -17 28
-76z m-1433 -113 c0 -88 -4 -160 -8 -160 -10 0 -10 160 -1 253 3 37 7 67 8 67
2 0 2 -72 1 -160z m1234 47 c9 -54 14 -100 10 -102 -13 -8 -150 -28 -156 -23
-10 11 -35 191 -27 199 10 10 101 28 132 26 23 -2 26 -8 41 -100z m-192 16 c6
-32 14 -79 17 -104 l7 -46 -79 -16 c-43 -8 -81 -12 -84 -9 -7 7 -41 194 -36
198 2 2 135 31 153 33 6 0 16 -25 22 -56z m2879 -175 c-1 -46 -3 -11 -3 77 0
88 2 125 3 83 2 -42 2 -114 0 -160z m-3055 95 c9 -54 15 -100 12 -104 -2 -4
-22 -10 -44 -14 -35 -6 -43 -4 -59 17 -12 14 -15 25 -9 29 16 10 -4 105 -21
101 -24 -5 -51 9 -51 28 0 14 12 20 58 28 104 18 95 24 114 -85z m-192 57 c0
-5 -7 -10 -15 -10 -8 0 -15 5 -15 10 0 6 7 10 15 10 8 0 15 -4 15 -10z m-667
-247 c4 -19 2 -33 -3 -33 -6 0 -10 17 -10 37 0 43 5 41 13 -4z m4 -90 c-3 -10
-5 -2 -5 17 0 19 2 27 5 18 2 -10 2 -26 0 -35z m3900 -10 c-3 -10 -5 -4 -5 12
0 17 2 24 5 18 2 -7 2 -21 0 -30z m-2877 -33 c33 -17 40 -26 49 -70 15 -69 14
-107 -5 -170 -17 -58 -49 -114 -82 -144 -16 -14 -29 -17 -58 -12 l-36 7 20 22
c61 65 95 221 74 335 -5 28 -7 52 -5 52 2 0 21 -9 43 -20z m2866 -45 c-4 -25
-11 -45 -15 -45 -4 0 -3 22 3 50 12 61 21 58 12 -5z m-3857 -80 c0 -11 -7 3
-15 30 -7 28 -13 59 -13 70 0 11 7 -2 15 -30 7 -27 13 -59 13 -70z m1241 87
c119 -4 138 -6 158 -25 28 -26 61 -83 97 -169 l28 -68 -17 -64 c-10 -36 -25
-71 -34 -79 -52 -45 -252 -54 -397 -17 -49 12 -93 24 -98 27 -4 2 11 25 33 50
64 73 92 209 67 327 -8 35 -7 38 10 31 10 -5 79 -10 153 -13z m2600 -77 c0 -8
-4 -15 -10 -15 -5 0 -7 7 -4 15 4 8 8 15 10 15 2 0 4 -7 4 -15z m-13 -67 c-3
-8 -6 -5 -6 6 -1 11 2 17 5 13 3 -3 4 -12 1 -19z m-3789 -98 c0 -8 -6 1 -13
20 -7 19 -13 42 -13 50 0 8 6 -1 13 -20 7 -19 13 -42 13 -50z m3772 43 c-11
-17 -11 -17 -6 0 3 10 6 24 7 30 0 9 2 9 5 0 3 -7 0 -20 -6 -30z m-1110 -72
c28 -11 71 -36 95 -56 55 -44 195 -187 195 -197 0 -4 -12 -8 -26 -8 -34 0
-181 -36 -227 -55 -53 -22 -57 -20 -57 33 0 119 -84 231 -199 264 -8 2 -1 11
20 21 46 23 137 22 199 -2z m-2645 -1 c3 -5 1 -10 -4 -10 -6 0 -11 5 -11 10 0
6 2 10 4 10 3 0 8 -4 11 -10z m3725 -34 c-6 -20 -15 -36 -20 -36 -5 0 -1 18 8
39 21 48 28 46 12 -3z m-3696 -39 c5 5 6 2 1 -5 -10 -18 -22 -4 -29 33 -6 30
-6 29 7 -3 7 -18 16 -30 21 -25z m1500 -17 c75 -113 211 -220 310 -244 23 -6
27 -10 21 -29 -32 -98 -44 -163 -44 -235 -1 -75 1 -85 24 -107 13 -14 36 -25
50 -25 14 0 25 -6 25 -13 0 -33 28 -51 81 -53 30 -1 67 -6 82 -10 21 -5 36 -1
57 15 16 12 44 21 63 21 48 0 66 25 76 109 5 41 21 95 35 126 29 59 56 79 56
41 0 -27 32 -59 79 -78 l34 -14 -2 -89 c-3 -123 -7 -135 -42 -135 -66 0 -210
-99 -239 -163 -27 -61 -13 -75 22 -22 16 25 35 48 41 52 13 8 0 -456 -14 -473
-20 -24 -105 -57 -174 -66 -38 -5 -90 -18 -115 -29 -141 -59 -325 -52 -557 22
-95 30 -149 41 -245 49 -282 23 -508 96 -508 164 0 14 11 98 25 188 86 571
111 628 313 730 90 45 160 58 227 39 49 -13 33 5 -21 24 -24 8 -33 15 -24 18
68 23 87 27 115 27 17 0 55 -7 84 -16 70 -20 77 -10 13 18 -28 13 -52 26 -52
30 0 3 21 11 46 16 45 10 81 4 149 -24 14 -6 10 4 -16 35 l-37 42 16 50 c9 27
17 49 18 49 1 0 13 -18 28 -40z m2157 -53 c-6 -15 -16 -27 -23 -27 -10 0 -10
2 -1 8 6 4 15 21 19 37 4 16 9 25 11 19 2 -6 -1 -23 -6 -37z m-3617 -46 c-7
-7 -33 33 -34 49 0 8 8 2 19 -15 10 -16 17 -32 15 -34z m3567 -63 c-11 -18
-21 -27 -21 -20 0 16 31 64 38 58 2 -3 -5 -20 -17 -38z m-3530 -10 c5 -10 6
-18 1 -18 -5 0 -14 11 -20 25 -22 49 -11 44 19 -7z m3501 -50 c-7 -7 -12 -8
-12 -2 0 14 12 26 19 19 2 -3 -1 -11 -7 -17z m-3468 -28 c-6 -5 -24 21 -24 34
0 6 6 1 14 -10 8 -10 12 -21 10 -24z m69 -102 c10 -16 13 -28 7 -28 -6 0 -16
12 -23 28 -6 15 -17 32 -23 37 -7 6 -15 21 -19 35 -7 25 5 10 58 -72z m3355
58 c-10 -7 -15 -16 -11 -19 3 -4 1 -7 -5 -7 -7 0 -12 3 -12 7 0 12 33 43 39
37 3 -3 -2 -11 -11 -18z m-488 -23 c-1 -43 -26 -149 -46 -193 -28 -60 -88
-114 -139 -124 -16 -3 -25 -4 -18 0 6 3 29 29 51 57 40 52 79 151 85 217 2 27
9 36 28 41 34 10 39 10 39 2z m-104 -40 c-31 -128 -77 -208 -154 -266 -35 -27
-102 -60 -108 -54 -1 1 1 59 6 127 5 69 10 139 10 157 0 36 10 40 134 53 124
13 119 14 112 -17z m564 17 c0 -5 -5 -10 -11 -10 -5 0 -7 5 -4 10 3 6 8 10 11
10 2 0 4 -4 4 -10z m-20 -30 c0 -5 -5 -10 -11 -10 -5 0 -7 5 -4 10 3 6 8 10
11 10 2 0 4 -4 4 -10z m-30 -50 c-6 -11 -16 -20 -22 -20 -6 0 -3 9 7 20 10 11
20 20 22 20 2 0 -1 -9 -7 -20z m-3226 -6 c4 -10 1 -14 -6 -12 -15 5 -23 28
-10 28 5 0 13 -7 16 -16z m3196 -34 c0 -5 -10 -15 -22 -21 l-23 -12 20 21 c23
24 25 25 25 12z m-3152 -46 c-4 -3 -12 5 -18 18 -12 22 -12 22 6 6 10 -10 15
-20 12 -24z m3101 -21 c-8 -10 -17 -20 -20 -23 -3 -3 -11 -14 -17 -25 -8 -14
-11 -16 -12 -5 0 8 11 28 25 43 29 30 45 37 24 10z m-3036 -62 c-3 -3 -8 0
-11 8 -2 7 -13 21 -23 29 -11 9 -19 21 -19 27 1 5 14 -5 30 -24 16 -19 27 -37
23 -40z m92 -89 c-5 -5 -75 62 -75 72 0 4 18 -9 40 -30 22 -21 38 -40 35 -42z
m2882 -34 c-2 -13 -4 -5 -4 17 -1 22 1 32 4 23 2 -10 2 -28 0 -40z m-2809 -36
c17 -19 32 -37 32 -39 0 -10 -59 43 -59 54 -1 6 -10 15 -21 18 -11 3 -20 11
-20 17 0 13 24 -5 68 -50z m2799 -275 c-1 -45 -3 -5 -3 88 0 94 2 130 3 82 2
-48 2 -125 0 -170z m-2681 166 c-6 -6 -66 39 -66 49 0 5 16 -3 35 -18 20 -15
34 -29 31 -31z m2378 -34 c-47 -38 -111 -79 -121 -79 -5 0 0 5 10 11 9 6 14
15 11 21 -4 7 -2 8 5 4 6 -4 33 10 62 33 29 23 56 41 62 41 5 0 -8 -14 -29
-31z m-2387 -21 c-3 -7 -5 -2 -5 12 0 14 2 19 5 13 2 -7 2 -19 0 -25z m-10
-65 c-3 -10 -5 -4 -5 12 0 17 2 24 5 18 2 -7 2 -21 0 -30z m2223 -33 c-24 -15
-36 -11 -14 4 10 8 21 12 24 10 2 -3 -2 -9 -10 -14z m-160 -80 c-8 -6 -22 -10
-30 -10 -8 0 -4 6 10 13 27 15 44 12 20 -3z m-290 -30 c0 -5 -7 -7 -15 -4 -8
4 -12 10 -9 15 6 11 24 2 24 -11z m227 -22 c-3 -7 -5 -2 -5 12 0 14 2 19 5 13
2 -7 2 -19 0 -25z m-2025 -60 c2 -20 0 -34 -4 -32 -4 3 -7 26 -7 52 1 49 5 42
11 -20z m2735 25 c-3 -10 -5 -4 -5 12 0 17 2 24 5 18 2 -7 2 -21 0 -30z m-654
0 c-7 -2 -19 -2 -25 0 -7 3 -2 5 12 5 14 0 19 -2 13 -5z m377 -3 c-34 -11 -60
-11 -35 0 11 5 29 8 40 8 16 0 15 -2 -5 -8z m-333 -6 c-3 -3 -12 -4 -19 -1 -8
3 -5 6 6 6 11 1 17 -2 13 -5z m46 -11 c-7 -2 -19 -2 -25 0 -7 3 -2 5 12 5 14
0 19 -2 13 -5z m140 -20 c-7 -2 -21 -2 -30 0 -10 3 -4 5 12 5 17 0 24 -2 18
-5z m-596 -39 c-3 -3 -12 -4 -19 -1 -8 3 -5 6 6 6 11 1 17 -2 13 -5z m-20 -61
c-3 -10 -5 -2 -5 17 0 19 2 27 5 18 2 -10 2 -26 0 -35z m-1612 27 c3 -6 -1 -7
-9 -4 -18 7 -21 14 -7 14 6 0 13 -4 16 -10z m1712 -22 c-3 -7 -5 -2 -5 12 0
14 2 19 5 13 2 -7 2 -19 0 -25z m678 -8 c-11 -5 -27 -9 -35 -9 -9 0 -8 4 5 9
11 5 27 9 35 9 9 0 8 -4 -5 -9z m42 -32 c-3 -8 -6 -5 -6 6 -1 11 2 17 5 13 3
-3 4 -12 1 -19z m240 0 c-3 -8 -6 -5 -6 6 -1 11 2 17 5 13 3 -3 4 -12 1 -19z
m-970 -241 c-1 -45 -3 -5 -3 88 0 94 2 130 3 82 2 -48 2 -125 0 -170z m-1470
227 c-3 -3 -12 -4 -19 -1 -8 3 -5 6 6 6 11 1 17 -2 13 -5z m1333 -14 c-8 -6
-24 -15 -35 -21 -16 -8 -15 -6 4 10 13 12 28 21 35 21 6 0 4 -5 -4 -10z m627
4 c-3 -3 -12 -4 -19 -1 -8 3 -5 6 6 6 11 1 17 -2 13 -5z m490 -26 c-3 -7 -5
-2 -5 12 0 14 2 19 5 13 2 -7 2 -19 0 -25z m-2114 -5 c-7 -2 -19 -2 -25 0 -7
3 -2 5 12 5 14 0 19 -2 13 -5z m1514 1 c-3 -3 -12 -4 -19 -1 -8 3 -5 6 6 6 11
1 17 -2 13 -5z m-1464 -11 c-7 -2 -19 -2 -25 0 -7 3 -2 5 12 5 14 0 19 -2 13
-5z m1424 1 c-3 -3 -12 -4 -19 -1 -8 3 -5 6 6 6 11 1 17 -2 13 -5z m-1342 -24
c13 -6 15 -9 5 -9 -8 0 -22 4 -30 9 -18 12 -2 12 25 0z m1242 4 c-3 -3 -12 -4
-19 -1 -8 3 -5 6 6 6 11 1 17 -2 13 -5z m510 -36 c-3 -7 -5 -2 -5 12 0 14 2
19 5 13 2 -7 2 -19 0 -25z m-1128 0 c0 -16 -2 -18 -6 -8 -3 8 -11 18 -17 22
-7 5 -4 8 7 8 11 0 17 -7 16 -22z m-476 -15 c-7 -2 -19 -2 -25 0 -7 3 -2 5 12
5 14 0 19 -2 13 -5z m394 1 c-3 -3 -12 -4 -19 -1 -8 3 -5 6 6 6 11 1 17 -2 13
-5z m1220 -26 c-3 -8 -6 -5 -6 6 -1 11 2 17 5 13 3 -3 4 -12 1 -19z m-1084 -5
c-7 -2 -19 -2 -25 0 -7 3 -2 5 12 5 14 0 19 -2 13 -5z m90 0 c-7 -2 -19 -2
-25 0 -7 3 -2 5 12 5 14 0 19 -2 13 -5z m1255 -48 c0 -16 -2 -15 -8 5 -11 34
-11 60 0 35 5 -11 8 -29 8 -40z m-2503 35 c-3 -5 -12 -10 -18 -10 -7 0 -6 4 3
10 19 12 23 12 15 0z m672 -27 c-3 -10 -5 -4 -5 12 0 17 2 24 5 18 2 -7 2 -21
0 -30z m530 31 c-3 -3 -12 -4 -19 -1 -8 3 -5 6 6 6 11 1 17 -2 13 -5z m-855
-49 c9 -20 9 -20 -6 -1 -9 11 -16 27 -15 35 0 14 1 14 6 1 3 -8 10 -24 15 -35z
m625 -32 c-2 -16 -4 -5 -4 22 0 28 2 40 4 28 2 -13 2 -35 0 -50z m710 35 c-3
-7 -5 -2 -5 12 0 14 2 19 5 13 2 -7 2 -19 0 -25z m-1742 12 c-3 -5 -12 -10
-18 -10 -7 0 -6 4 3 10 19 12 23 12 15 0z m-35 -24 c0 -2 -8 -10 -17 -17 -16
-13 -17 -12 -4 4 13 16 21 21 21 13z m757 -18 c-3 -8 -6 -5 -6 6 -1 11 2 17 5
13 3 -3 4 -12 1 -19z m-657 3 c0 -5 8 -12 18 -15 31 -10 103 -87 123 -130 l18
-41 -27 -12 c-41 -18 -70 -16 -77 7 -9 28 -114 140 -131 140 -22 0 -16 17 14
39 28 21 62 28 62 12z m1667 -23 c-3 -7 -5 -2 -5 12 0 14 2 19 5 13 2 -7 2
-19 0 -25z m-1297 -13 c0 -5 -5 -3 -10 5 -5 8 -10 20 -10 25 0 6 5 3 10 -5 5
-8 10 -19 10 -25z m1946 -6 c16 -1 16 -2 2 -6 -21 -5 -58 13 -58 29 0 6 8 4
18 -5 10 -10 27 -18 38 -18z m129 1 c-3 -5 -14 -10 -23 -9 -14 0 -13 2 3 9 27
11 27 11 20 0z m-2620 -10 c-3 -5 -12 -10 -18 -10 -7 0 -6 4 3 10 19 12 23 12
15 0z m806 -13 c-10 -9 -11 -8 -5 6 3 10 9 15 12 12 3 -3 0 -11 -7 -18z m-240
-51 c5 -6 9 -14 9 -20 0 -5 -7 -1 -15 10 -8 10 -14 33 -13 49 l1 30 4 -30 c3
-16 9 -34 14 -39z m-646 24 c-27 -12 -43 -12 -25 0 8 5 22 9 30 9 10 0 8 -3
-5 -9z m845 -5 c-7 -9 -15 -13 -17 -11 -7 7 7 26 19 26 6 0 6 -6 -2 -15z m420
-30 c0 -5 -5 -3 -10 5 -5 8 -10 20 -10 25 0 6 5 3 10 -5 5 -8 10 -19 10 -25z
m441 -12 c-12 -20 -14 -14 -5 12 4 9 9 14 11 11 3 -2 0 -13 -6 -23z m228 -57
c1 -68 -5 -55 -12 24 -3 38 -1 57 3 45 5 -11 9 -42 9 -69z m-1137 52 c-7 -7
-12 -8 -12 -2 0 14 12 26 19 19 2 -3 -1 -11 -7 -17z m230 -21 c53 -34 101 -85
127 -134 10 -19 7 -25 -22 -47 -35 -27 -57 -33 -57 -16 0 27 -139 150 -170
150 -6 0 -27 7 -47 15 l-36 15 28 30 c39 41 99 36 177 -13z m-1122 19 c0 -2
-8 -10 -17 -17 -16 -13 -17 -12 -4 4 13 16 21 21 21 13z m870 -20 c0 -2 -8
-10 -17 -17 -16 -13 -17 -12 -4 4 13 16 21 21 21 13z m530 -68 c0 -5 -7 -3
-15 6 -8 8 -15 18 -15 22 0 3 7 1 15 -6 8 -7 15 -17 15 -22z m-680 -8 c-8 -5
-19 -10 -25 -10 -5 0 -3 5 5 10 8 5 20 10 25 10 6 0 3 -5 -5 -10z m-70 -30
c-8 -5 -19 -10 -25 -10 -5 0 -3 5 5 10 8 5 20 10 25 10 6 0 3 -5 -5 -10z
m1190 -16 c0 -2 -9 0 -20 6 -11 6 -20 13 -20 16 0 2 9 0 20 -6 11 -6 20 -13
20 -16z m-1120 -3 c0 -5 -7 -12 -16 -15 -14 -5 -15 -4 -4 9 14 17 20 19 20 6z
m-395 -39 c-3 -3 -11 0 -18 7 -9 10 -8 11 6 5 10 -3 15 -9 12 -12z m185 8 c-8
-5 -22 -9 -30 -9 -10 0 -8 3 5 9 27 12 43 12 25 0z m152 -22 c-7 -7 -12 -8
-12 -2 0 14 12 26 19 19 2 -3 -1 -11 -7 -17z m-242 -8 c-8 -5 -22 -9 -30 -9
-10 0 -8 3 5 9 27 12 43 12 25 0z m-314 -48 c-16 -2 -32 0 -37 5 -5 5 7 7 29
4 34 -5 35 -6 8 -9z m174 8 c-14 -4 -41 -8 -60 -8 l-35 1 40 7 c57 10 87 10
55 0z m960 -24 c0 -2 -7 -7 -16 -10 -8 -3 -12 -2 -9 4 6 10 25 14 25 6z m75
-16 c-3 -5 -12 -10 -18 -10 -7 0 -6 4 3 10 19 12 23 12 15 0z m-640 -30 c3 -6
-1 -7 -9 -4 -18 7 -21 14 -7 14 6 0 13 -4 16 -10z m75 -40 c8 -5 11 -10 5 -10
-5 0 -17 5 -25 10 -8 5 -10 10 -5 10 6 0 17 -5 25 -10z m-3 -56 c-3 -3 -12 -4
-19 -1 -8 3 -5 6 6 6 11 1 17 -2 13 -5z"/>
<path d="M1144 4488 c-53 -25 -53 -110 -1 -154 62 -52 134 3 128 99 -1 10 -12
29 -26 42 -26 26 -64 31 -101 13z m75 -42 c7 -8 11 -30 9 -48 -2 -26 -8 -34
-26 -36 -13 -2 -30 2 -38 8 -14 13 -20 71 -7 83 11 12 50 7 62 -7z"/>
<path d="M953 4445 c-24 -17 -39 -71 -28 -104 11 -34 46 -61 80 -61 40 0 79
34 71 64 -3 11 -6 27 -6 34 0 9 -10 12 -27 10 -29 -3 -45 -28 -18 -28 24 0 14
-34 -11 -38 -42 -6 -72 56 -42 86 7 7 24 12 39 12 15 0 29 6 32 14 11 28 -55
36 -90 11z"/>
<path d="M835 4420 c-3 -5 -3 -25 1 -45 3 -19 4 -35 0 -35 -3 0 -21 16 -39 37
-24 26 -39 34 -51 30 -15 -6 -17 -14 -11 -50 15 -93 27 -128 44 -125 12 3 15
13 13 48 l-4 45 39 -38 c27 -26 45 -36 57 -31 10 4 15 13 11 24 -6 18 -25 128
-25 143 0 11 -28 9 -35 -3z"/>
<path d="M640 4374 c0 -27 23 -148 29 -156 3 -4 12 -3 20 1 12 8 12 22 1 90
-11 67 -17 81 -32 81 -10 0 -18 -7 -18 -16z"/>
<path d="M493 4363 c-37 -5 -38 -5 -19 -108 l12 -70 32 2 c80 3 109 33 81 85
-7 12 -12 33 -10 44 3 25 -24 55 -47 52 -9 0 -32 -3 -49 -5z m55 -50 c-2 -10
-12 -18 -23 -18 -11 0 -21 8 -23 18 -3 13 3 17 23 17 20 0 26 -4 23 -17z m20
-70 c-2 -10 -13 -19 -26 -21 -17 -3 -22 2 -22 17 0 16 6 21 26 21 19 0 25 -5
22 -17z"/>
<path d="M1247 4203 c-12 -11 -8 -78 5 -91 29 -29 71 -1 61 39 -5 18 -15 23
-40 20 -7 -1 -13 3 -13 9 0 5 9 10 20 10 11 0 20 5 20 10 0 11 -43 14 -53 3z
m43 -68 c0 -8 -4 -15 -10 -15 -5 0 -10 7 -10 15 0 8 5 15 10 15 6 0 10 -7 10
-15z"/>
<path d="M1104 4158 c-4 -6 -2 -14 4 -16 6 -2 14 -19 18 -38 9 -47 28 -44 20
4 -3 20 -6 43 -6 50 0 15 -26 16 -36 0z"/>
<path d="M1030 4130 c0 -25 4 -30 25 -30 14 0 25 -4 25 -10 0 -5 -9 -10 -20
-10 -11 0 -20 -5 -20 -11 0 -6 12 -9 28 -7 21 2 27 8 27 28 0 18 -6 26 -22 28
-25 4 -32 22 -8 22 8 0 15 5 15 10 0 6 -11 10 -25 10 -21 0 -25 -5 -25 -30z"/>
<path d="M930 4130 c0 -5 -17 -8 -37 -7 -30 2 -38 -2 -41 -18 -4 -17 -2 -18
12 -6 21 17 33 7 16 -14 -10 -12 -10 -15 4 -15 9 0 16 -7 16 -16 0 -11 -6 -14
-21 -9 -16 5 -20 3 -17 -6 3 -8 16 -14 29 -14 22 0 24 3 21 43 -2 36 0 42 18
42 15 0 20 -7 20 -29 0 -17 5 -33 10 -36 11 -7 14 53 4 79 -7 17 -34 22 -34 6z"/>
<path d="M736 4095 c-18 -18 -21 -35 -6 -35 6 0 10 5 10 10 0 6 7 10 15 10 19
0 19 -11 0 -36 -20 -26 -20 -58 1 -50 9 3 22 6 30 6 8 0 14 5 14 10 0 6 -7 10
-15 10 -18 0 -19 4 -3 30 23 36 -16 74 -46 45z"/>
<path d="M672 4078 c-16 -16 -15 -28 3 -28 9 0 15 -9 15 -24 0 -22 16 -44 25
-34 6 6 -16 98 -24 98 -4 0 -12 -5 -19 -12z"/>
<path d="M516 4062 c-8 -14 1 -93 12 -104 13 -13 48 -2 55 16 10 25 -20 91
-41 94 -11 2 -23 -1 -26 -6z m34 -22 c0 -5 -4 -10 -10 -10 -5 0 -10 5 -10 10
0 6 5 10 10 10 6 0 10 -4 10 -10z m10 -55 c0 -8 -4 -15 -10 -15 -5 0 -10 7
-10 15 0 8 5 15 10 15 6 0 10 -7 10 -15z"/>
<path d="M1332 3998 c-16 -16 -15 -28 2 -28 7 0 17 -15 21 -32 10 -44 19 -10
10 38 -6 36 -14 41 -33 22z"/>
<path d="M1263 3993 c-13 -2 -23 -9 -23 -15 0 -6 11 -8 25 -6 20 4 24 2 21
-11 -15 -49 -17 -71 -8 -71 5 0 15 20 21 44 17 71 18 69 -36 59z"/>
<path d="M961 3926 c-7 -8 -9 -20 -5 -27 5 -8 9 -7 16 5 5 9 13 16 18 16 16 0
11 -23 -10 -50 -27 -35 -25 -40 15 -40 19 0 35 5 35 10 0 6 -7 10 -15 10 -18
0 -19 12 -4 27 6 6 9 21 7 34 -4 28 -39 37 -57 15z"/>
<path d="M895 3890 c-22 -43 -19 -57 16 -62 22 -4 33 0 40 14 6 11 6 18 0 18
-5 0 -12 14 -16 30 -8 38 -20 38 -40 0z m25 -26 c0 -8 -5 -12 -10 -9 -6 4 -8
11 -5 16 9 14 15 11 15 -7z"/>
<path d="M770 3885 c-17 -21 -8 -50 18 -53 29 -4 28 -19 0 -25 -20 -3 -21 -4
-5 -11 29 -14 47 1 47 38 0 32 -20 66 -39 66 -5 0 -14 -7 -21 -15z m30 -25 c0
-5 -4 -10 -10 -10 -5 0 -10 5 -10 10 0 6 5 10 10 10 6 0 10 -4 10 -10z"/>
<path d="M704 3869 c-4 -7 1 -16 10 -21 9 -5 16 -22 16 -38 0 -17 5 -30 10
-30 11 0 13 24 4 69 -6 31 -27 41 -40 20z"/>
<path d="M593 3863 c-7 -2 -13 -18 -13 -34 0 -23 4 -28 21 -26 12 1 24 -4 26
-10 3 -8 -4 -13 -16 -13 -12 0 -21 -4 -21 -9 0 -17 19 -22 40 -11 28 15 23 51
-9 66 -23 12 -23 12 -2 19 12 3 21 11 21 16 0 9 -26 11 -47 2z"/>
<path d="M520 3835 c-11 -14 -7 -19 12 -16 4 0 10 -15 14 -34 9 -48 28 -46 20
3 -3 20 -6 43 -6 50 0 17 -25 15 -40 -3z"/>
<path d="M1338 3793 c-35 -5 -37 -23 -2 -23 20 0 25 -4 20 -16 -14 -36 -18
-64 -9 -64 6 0 15 17 21 39 14 44 15 72 5 70 -5 -1 -20 -4 -35 -6z"/>
<path d="M1182 3758 c-15 -15 -16 -38 -2 -38 6 0 10 7 10 15 0 8 5 15 10 15
14 0 12 -14 -7 -55 -19 -41 -17 -45 20 -38 28 5 38 23 13 23 -12 0 -12 6 -3
29 18 47 -10 80 -41 49z"/>
<path d="M1100 3720 c0 -25 4 -30 25 -30 14 0 25 -4 25 -10 0 -5 -9 -10 -21
-10 -12 0 -19 -5 -16 -12 2 -7 15 -13 28 -13 20 0 24 5 24 30 0 23 -5 31 -22
33 -25 4 -32 22 -8 22 8 0 15 5 15 10 0 6 -11 10 -25 10 -21 0 -25 -5 -25 -30z"/>
<path d="M936 3708 c-9 -12 -16 -33 -16 -45 0 -53 78 -84 113 -45 22 25 21 75
-1 95 -27 25 -78 22 -96 -5z"/>
<path d="M800 3659 c0 -25 3 -30 22 -27 11 2 23 -3 25 -9 3 -8 -4 -13 -16 -13
-12 0 -21 -4 -21 -9 0 -16 28 -20 46 -7 25 18 12 66 -19 67 l-22 0 23 9 c30
13 28 20 -8 20 -27 0 -30 -3 -30 -31z"/>
<path d="M752 3668 c-16 -16 -15 -28 3 -28 10 0 15 -10 15 -29 0 -17 5 -33 10
-36 11 -7 13 27 4 74 -7 34 -13 38 -32 19z"/>
<path d="M594 3635 c-4 -9 -3 -19 1 -23 4 -4 10 -1 12 6 3 6 9 12 14 12 15 0
10 -23 -11 -50 -27 -35 -25 -40 15 -40 19 0 35 5 35 10 0 6 -7 10 -15 10 -18
0 -19 12 -4 27 6 6 9 21 7 34 -4 29 -45 39 -54 14z"/>
<path d="M1391 3577 c-6 -8 -9 -21 -7 -28 2 -8 7 -26 10 -41 5 -22 12 -28 32
-28 31 0 37 15 26 65 -8 43 -38 59 -61 32z m39 -17 c0 -5 -4 -10 -10 -10 -5 0
-10 5 -10 10 0 6 5 10 10 10 6 0 10 -4 10 -10z m10 -45 c0 -8 -4 -15 -9 -15
-13 0 -22 16 -14 24 11 11 23 6 23 -9z"/>
<path d="M1335 3563 c-3 -10 -2 -19 4 -21 6 -2 13 -19 17 -38 3 -18 10 -31 15
-28 5 3 7 16 4 30 -3 13 -7 35 -10 49 -6 29 -20 33 -30 8z"/>
<path d="M1218 3553 c-27 -7 -21 -23 8 -23 20 0 25 -4 20 -16 -14 -36 -18 -64
-9 -64 10 0 33 65 33 94 0 16 -16 19 -52 9z"/>
<path d="M1154 3505 c-19 -47 -18 -58 6 -52 11 3 23 0 26 -5 14 -22 22 19 11
55 -15 46 -24 47 -43 2z m26 -15 c0 -5 -5 -10 -11 -10 -5 0 -7 5 -4 10 3 6 8
10 11 10 2 0 4 -4 4 -10z"/>
<path d="M1034 3505 c-9 -24 5 -82 21 -89 27 -10 46 5 43 33 -2 18 -10 27 -25
29 -29 4 -30 22 -2 22 11 0 17 5 14 10 -9 15 -45 12 -51 -5z m46 -60 c0 -8 -4
-15 -10 -15 -5 0 -10 7 -10 15 0 8 5 15 10 15 6 0 10 -7 10 -15z"/>
<path d="M960 3495 c-16 -19 -6 -32 13 -17 19 16 30 3 14 -16 -9 -12 -9 -16 1
-19 20 -7 14 -23 -9 -23 -11 0 -17 -4 -14 -10 3 -5 17 -10 30 -10 25 0 41 26
26 44 -5 6 -11 22 -13 36 -4 29 -29 37 -48 15z"/>
<path d="M865 3483 c-34 -8 -41 -23 -11 -23 23 0 26 -3 22 -20 -3 -11 -9 -29
-12 -40 -3 -11 -1 -20 5 -20 10 0 31 61 31 93 0 18 -1 18 -35 10z"/>
<path d="M789 3454 c-11 -13 -10 -17 4 -25 9 -6 17 -21 17 -34 0 -14 5 -25 11
-25 8 0 10 13 5 38 -3 20 -6 43 -6 50 0 17 -15 15 -31 -4z"/>
<path d="M1420 3380 c-17 -4 -24 -12 -22 -26 6 -36 11 -42 31 -37 15 4 21 1
21 -11 0 -11 -9 -16 -27 -16 -26 -1 -27 -1 -9 -15 27 -21 58 -2 54 33 -2 19
-10 28 -25 30 -25 4 -32 22 -9 22 17 0 30 17 19 23 -5 2 -19 1 -33 -3z"/>
<path d="M1254 3336 c-9 -25 1 -51 18 -48 25 4 33 -19 9 -25 -26 -7 -28 -23
-2 -23 50 0 50 57 0 71 l-24 7 23 7 c12 4 22 11 22 16 0 15 -40 10 -46 -5z"/>
<path d="M1172 3303 c2 -22 8 -28 26 -26 14 2 22 -3 22 -12 0 -8 -9 -15 -20
-15 -11 0 -20 -5 -20 -11 0 -6 12 -9 28 -7 21 2 28 9 30 29 3 22 -2 29 -25 37
-16 6 -21 11 -11 11 32 2 30 21 -2 21 -28 0 -31 -3 -28 -27z"/>
<path d="M1078 3313 c-10 -2 -18 -9 -18 -15 0 -6 9 -8 21 -5 20 5 21 3 14 -41
-7 -52 5 -49 24 7 20 60 13 68 -41 54z"/>
<path d="M997 3294 c-4 -4 -7 -14 -7 -23 0 -12 3 -12 12 -3 18 18 30 14 23 -7
-3 -11 -1 -22 5 -26 19 -12 11 -27 -11 -20 -15 5 -20 3 -17 -6 6 -17 28 -22
46 -10 22 14 2 95 -24 99 -11 2 -23 0 -27 -4z"/>
<path d="M893 3272 c-17 -11 -11 -83 9 -95 8 -6 23 -7 33 -4 14 6 16 14 10 50
-4 23 -9 45 -12 50 -5 9 -25 9 -40 -1z m27 -22 c0 -5 -4 -10 -10 -10 -5 0 -10
5 -10 10 0 6 5 10 10 10 6 0 10 -4 10 -10z m10 -51 c0 -5 -4 -9 -10 -9 -5 0
-10 7 -10 16 0 8 5 12 10 9 6 -3 10 -10 10 -16z"/>
</g>
</svg>
